<?xml version="1.0" encoding="UTF-8" standalone="no"?>
<!-- Created with Inkscape (http://www.inkscape.org/) -->

<svg
   xmlns:dc="http://purl.org/dc/elements/1.1/"
   xmlns:cc="http://creativecommons.org/ns#"
   xmlns:rdf="http://www.w3.org/1999/02/22-rdf-syntax-ns#"
   xmlns:svg="http://www.w3.org/2000/svg"
   xmlns="http://www.w3.org/2000/svg"
   xmlns:sodipodi="http://sodipodi.sourceforge.net/DTD/sodipodi-0.dtd"
   xmlns:inkscape="http://www.inkscape.org/namespaces/inkscape"
   width="100"
   height="100"
   viewBox="0 0 26.458333 26.458334"
   version="1.1"
   id="svg8"
   inkscape:export-filename="/home/alvaro/Programming/vim-northpole/assets/banner.png"
   inkscape:export-xdpi="96"
   inkscape:export-ydpi="96"
   enable-background="new"
   inkscape:version="0.92.2 5c3e80d, 2017-08-06"
   sodipodi:docname="banner.svg">
  <defs
     id="defs2">
    <filter
       inkscape:collect="always"
       style="color-interpolation-filters:sRGB"
       id="filter979">
      <feBlend
         inkscape:collect="always"
         mode="multiply"
         in2="BackgroundImage"
         id="feBlend981" />
    </filter>
    <mask
       maskUnits="userSpaceOnUse"
       id="mask1021">
      <circle
         mask="none"
         r="12.832292"
         cy="283.77081"
         cx="13.229167"
         id="circle1023"
         style="display:inline;fill:#bbbbbb;fill-opacity:1;stroke:none;stroke-width:0.30000001;stroke-miterlimit:4;stroke-dasharray:none;stroke-opacity:1"
         transform="scale(1,-1)" />
    </mask>
  </defs>
  <sodipodi:namedview
     id="base"
     pagecolor="#ffffff"
     bordercolor="#666666"
     borderopacity="1.0"
     inkscape:pageopacity="0.0"
     inkscape:pageshadow="2"
     inkscape:zoom="4"
     inkscape:cx="41.407952"
     inkscape:cy="40.564529"
     inkscape:document-units="px"
     inkscape:current-layer="layer1"
     showgrid="false"
     units="px"
     inkscape:window-width="1366"
     inkscape:window-height="721"
     inkscape:window-x="0"
     inkscape:window-y="23"
     inkscape:window-maximized="1" />
  <metadata
     id="metadata5">
    <rdf:RDF>
      <cc:Work
         rdf:about="">
        <dc:format>image/svg+xml</dc:format>
        <dc:type
           rdf:resource="http://purl.org/dc/dcmitype/StillImage" />
        <dc:title></dc:title>
      </cc:Work>
    </rdf:RDF>
  </metadata>
  <g
     inkscape:label="Capa 1"
     inkscape:groupmode="layer"
     id="layer1"
     transform="translate(0,-270.54166)"
     style="display:inline;filter:url(#filter979)">
    <circle
       style="fill:#1e1f25;fill-opacity:1;stroke:none;stroke-width:0.30000001;stroke-miterlimit:4;stroke-dasharray:none;stroke-opacity:1"
       id="path834"
       cx="13.229167"
       cy="283.77081"
       r="12.832292"
       mask="none" />
    <rect
       style="fill:#2f3d90;fill-opacity:1;stroke:none;stroke-width:0.09272384;stroke-miterlimit:4;stroke-dasharray:none;stroke-opacity:1"
       id="rect876"
       width="26.458334"
       height="18.983854"
       x="-2.3455812e-07"
       y="-289.66852"
       transform="scale(1,-1)"
       mask="url(#mask1021)" />
  </g>
  <g
     inkscape:groupmode="layer"
     id="layer2"
     inkscape:label="Capa 2"
     style="display:inline" />
  <g
     inkscape:groupmode="layer"
     id="layer4"
     inkscape:label="Capa 4" />
  <g
     inkscape:groupmode="layer"
     id="layer3"
     inkscape:label="Capa 3"
     style="display:inline"
     sodipodi:insensitive="true">
    <g
       id="g866"
       transform="translate(-0.25233556,-270.54166)">
      <path
         sodipodi:nodetypes="cccccscccccccc"
         inkscape:connector-curvature="0"
         id="path826"
         d="m 6.8921547,287.98317 c -0.2082199,-0.0668 -0.3331567,-0.26997 -0.2924675,-0.48686 0.2481305,-0.7635 3.0590572,-1.74272 3.8557248,-3.36854 -0.8150165,-0.0383 -1.4369122,-0.0362 -2.3123523,-0.0467 v 0 c -0.2221698,0.005 -0.2614163,-0.27774 -0.2614163,-0.39312 0,-0.12962 0.097879,-0.2273 0.1825279,-0.31002 1.0965854,-0.87882 3.2377827,-2.17881 3.6837537,-3.16296 -0.825315,-0.073 -1.389498,-0.031 -2.3519039,-0.0741 -0.3067662,-0.0286 -0.3379243,-0.31453 -0.1866575,-0.53809 1.2536614,-1.10199 2.8621374,-2.36716 3.8246774,-3.52043 0.10141,-0.0927 0.334547,-0.18773 0.439678,-0.18773 v 12.08857 z"
         style="fill:#1c903b;fill-opacity:1;stroke:none;stroke-width:0.03120094;stroke-miterlimit:4;stroke-dasharray:none;stroke-opacity:1" />
      <path
         style="fill:#1d7e37;fill-opacity:1;stroke:#1c903b;stroke-width:0.03120094;stroke-miterlimit:4;stroke-dasharray:none;stroke-opacity:1"
         d="m 20.055283,287.98317 c 0.20822,-0.0668 0.333157,-0.26997 0.292468,-0.48686 -0.248131,-0.7635 -3.059057,-1.74272 -3.855725,-3.36854 0.815017,-0.0383 1.436912,-0.0362 2.312352,-0.0467 v 0 c 0.22217,0.005 0.261417,-0.27774 0.261417,-0.39312 0,-0.12962 -0.09788,-0.2273 -0.182528,-0.31002 -1.096586,-0.87882 -3.237783,-2.17881 -3.683754,-3.16296 0.825315,-0.073 1.389498,-0.031 2.351904,-0.0741 0.306766,-0.0286 0.337924,-0.31453 0.186657,-0.53809 -1.253661,-1.10199 -2.862137,-2.36716 -3.824677,-3.52043 -0.10141,-0.0927 -0.334547,-0.18773 -0.439678,-0.18773 v 12.08857 z"
         id="path840"
         inkscape:connector-curvature="0"
         sodipodi:nodetypes="cccccscccccccc" />
    </g>
    <g
       id="g862"
       transform="translate(-0.24647006,-270.53853)">
      <path
         sodipodi:nodetypes="cccccccc"
         inkscape:connector-curvature="0"
         id="path830"
         d="m 12.506792,289.66541 c -0.0888,-0.0203 -0.167046,-0.0563 -0.218546,-0.11776 -0.05197,-0.0594 -0.09348,-0.12335 -0.09753,-0.20762 v -0.67635 -0.68049 h 1.283003 v 1.68222 z"
         style="fill:#a04040;fill-opacity:1;stroke:none;stroke-width:0.00780024;stroke-miterlimit:4;stroke-dasharray:none;stroke-opacity:1" />
      <path
         style="fill:#8e3b3b;fill-opacity:1;stroke:#a04040;stroke-width:0.00767292;stroke-miterlimit:4;stroke-dasharray:none;stroke-opacity:1"
         d="m 14.440646,289.66541 c 0.0888,-0.0203 0.167046,-0.0563 0.218546,-0.11776 0.05197,-0.0594 0.09348,-0.12335 0.09753,-0.20762 v -0.67635 -0.68049 h -1.283003 v 1.68222 z"
         id="path842"
         inkscape:connector-curvature="0"
         sodipodi:nodetypes="cccccccc" />
    </g>
  </g>
</svg>
